PathFileType	4	(X/Y/Z)	Patient4_TMGait_0pt7_01_right_09.trc.trc
DataRate	CameraRate	NumFrames	NumMarkers	Units	OrigDataRate	OrigDataStartFrame	OrigNumFrames
90.322580645161	90.322580645161	4	33	mm	90.322580645161	1	       141
Frame#	Time	Sacral			L.Shoulder			Chest			R.Shoulder			Neck			R.ASIS			L.ASIS			R.Thigh.Superior			R.Thigh.Lateral			R.Thigh.Inferior			R.Patella			L.Thigh.Superior			L.Thigh.Lateral			L.Thigh.Inferior			L.Patella			L.Shank.Superior			L.Shank.Lateral			L.Shank.Inferior			R.Shank.Superior			R.Shank.Lateral			R.Shank.Inferior			R.Heel			R.Midfoot.Superior			R.Midfoot.Lateral			R.Toe			L.Heel			L.Midfoot.Lateral			L.Midfoot.Superior			L.Toe			L.Elbow			L.Wrist			R.Elbow			R.Wrist			
		X1	Y1	Z1	X2	Y2	Z2	X3	Y3	Z3	X4	Y4	Z4	X5	Y5	Z5	X6	Y6	Z6	X7	Y7	Z7	X8	Y8	Z8	X9	Y9	Z9	X10	Y10	Z10	X11	Y11	Z11	X12	Y12	Z12	X13	Y13	Z13	X14	Y14	Z14	X15	Y15	Z15	X16	Y16	Z16	X17	Y17	Z17	X18	Y18	Z18	X19	Y19	Z19	X20	Y20	Z20	X21	Y21	Z21	X22	Y22	Z22	X23	Y23	Z23	X24	Y24	Z24	X25	Y25	Z25	X26	Y26	Z26	X27	Y27	Z27	X28	Y28	Z28	X29	Y29	Z29	X30	Y30	Z30	X31	Y31	Z31	X32	Y32	Z32	X33	Y33	Z33	

1	9.810000000000	755.584957576884	1009.041232582508	437.700645263201	944.381763148481	1437.740504434821	270.233315422840	1040.100609600234	1366.155977028577	435.658006795987	948.460987218331	1440.921047579983	605.524335898729	940.192163846888	1497.651959001708	427.504670063295	973.919560001992	945.259206757917	567.477783078071	980.432174089195	966.437396573796	293.833939577505	1064.066941820016	782.844477169695	542.599579138099	1027.156315807406	660.197045441619	614.425790087753	1123.537713045418	626.235760708233	540.415875131591	1146.150464065320	511.801448867474	562.349949627275	1024.692118254138	752.489334855507	325.916978320176	934.524800863665	639.317499199381	261.111069220867	1008.193085179392	558.989922174675	332.639532475290	1004.154963701068	491.161593898972	343.658343470909	980.763868753319	419.620560255797	332.504700117829	896.724179104757	303.300174245030	278.113237578149	943.791274023660	194.540507603602	355.070175476914	1068.093402323175	436.247701241713	564.941398732528	942.001127235553	399.041061556958	616.650284678654	929.211660076482	289.900604972720	567.884943685224	732.782080422739	245.147885865278	525.525739085906	886.879502513880	159.727050123886	574.512792146610	776.720363121568	175.360897648229	600.641037603273	932.614958326592	38.693217796930	602.598732725044	815.347175977331	37.485135314155	392.492347733067	891.214978775373	35.104136997039	312.931653883852	972.406606305115	96.980650770073	342.447914261021	1102.001715449610	48.393040420161	316.398273919309	950.873174807568	1093.132347460535	134.541580033680	1080.739235853599	866.951654836210	152.004583460291	911.221216349151	1091.979905056436	715.560983534716	1134.608806363307	968.649375254346	671.988106205162	
2	9.821071428571	754.795277837060	1009.511311850157	436.151975870881	946.700218721713	1437.976224963256	269.936186011094	1040.577362790297	1366.082115149939	436.196373206801	947.664663517762	1441.122233702697	605.172722836377	940.975141497581	1497.841632437752	427.105719778961	972.718097102232	946.257395516230	567.895170994827	981.203876774037	966.687682478452	293.922328990486	1064.576610328402	786.832151982351	542.245288965414	1030.395682012262	663.621461878726	614.480095440500	1127.032853438774	631.279336196797	540.301639207368	1152.290749764005	518.216070180103	562.647242253863	1021.750123518117	751.303027221336	326.454182597110	930.525975576738	639.291658882195	260.793680341741	1002.481664668460	558.033795270438	332.669319522939	997.530574498794	490.497956045252	343.687155405603	974.049165062661	419.216435616823	332.453434568209	889.713984931626	303.266564596782	277.888176066014	935.973081316671	194.330425691441	355.066902732903	1077.754839489686	440.036383385770	565.447986522172	954.040167396749	396.528468551824	616.993905226473	947.184878188209	287.047954661157	568.519059548457	753.777115903060	230.504840385550	526.032396182537	912.403444218688	157.075903903426	576.926942723400	801.718044631734	165.193461278963	602.124442057878	965.213931024099	39.649771124758	606.016007771341	807.167424291977	37.488509184903	392.478679240937	883.063287199606	35.105861764640	312.910017276494	964.309547980383	96.922820253418	342.455552868166	1093.927177513391	48.065205403418	316.410375270177	959.730580278110	1094.922305725374	132.475913745879	1101.467265800298	877.593967954862	152.670141586184	903.213539574226	1092.609076509590	714.528453663467	1111.071517534501	948.212560632809	677.768086338097	
3	9.832142857143	754.031315341021	1009.980878827517	434.638428438551	949.018156641078	1438.204822881427	269.660517342005	1041.069041569888	1365.995543404287	436.740660721097	946.900112751818	1441.298539364758	604.842847397635	941.764928295941	1498.018831481344	426.725764525794	971.509497641852	947.206139925873	568.301251807359	981.905913122261	966.891886495019	294.035763151657	1065.050473400261	790.702610503731	541.914542955743	1033.449449860890	666.897532786227	614.505209714046	1130.344614628243	636.117231988137	540.214532755690	1158.134457135787	524.437399742686	562.948539532161	1018.843073955186	750.127457276803	327.016407428954	926.586166629427	639.267178347060	260.482958898309	996.845749745515	557.094146178912	332.700751041531	990.999396716486	489.844066962664	343.708077811259	967.427692428200	418.822999954118	332.399296280803	882.793580012283	303.234643180718	277.667908851985	928.265623144435	194.124222331726	355.061322434329	1087.164436125462	443.685432535397	565.957460948545	965.971788460882	393.865990400907	617.431548534203	965.054579917228	284.117772859517	569.236421246827	774.858164714811	215.795211711514	526.728360066862	937.835834978266	154.363472085069	579.356276388256	826.758440804478	155.001330114570	603.735295620632	997.697445025012	40.694086479479	609.435966985024	799.100989599307	37.494710464525	392.459938986102	875.019906576411	35.107087268672	312.889247689439	956.323741727374	96.863491232719	342.462916513701	1085.961664608000	47.735632950810	316.421820576894	968.403067401897	1096.696568691342	130.476215769458	1121.811573515090	888.262443989132	153.390196262227	895.484142944198	1093.185526699887	713.547402329005	1087.538279148720	928.327801505309	683.479193555528	
4	9.843214285714	753.340810913208	1010.428049473145	433.204106781685	951.345555848425	1438.412918832074	269.442206114485	1041.604281714347	1365.869303877988	437.306422600440	946.217722430924	1441.408245671953	604.569691294718	942.583621140583	1498.159129408958	426.401135690272	970.319244726120	948.055408489261	568.693318513426	982.495304507035	966.999870170216	294.192525415315	1065.434788537790	794.275218026900	541.650098491230	1036.091234509611	669.846588696692	614.513155253483	1133.227666264613	640.491498179188	540.191753395972	1163.344751736485	530.275111147981	563.256868277817	1015.999803703270	748.955898952765	327.620960952304	922.734085868666	639.236276486679	260.189559297825	991.319562863130	556.171169551188	332.737341268067	984.605028523620	489.195804174661	343.715461975758	960.932317925424	418.437643208831	332.344299391455	875.981176756078	303.204215133872	277.461668167314	920.691752438090	193.918799069153	355.054853653307	1096.091686552775	447.069131207569	566.494669147727	977.797853603618	390.899007890832	618.088002991439	982.883205769365	281.076129920769	570.141556844648	796.413335320464	200.934741098037	527.834671174928	963.344045807692	151.616362335277	581.840298720871	852.199364856200	144.790139856964	605.621237846165	1030.229689462286	42.078247060392	612.853158730348	791.157942149911	37.508431567421	392.432750703606	867.090158752427	35.108455625092	312.871536652805	948.458213960208	96.800224683038	342.472283271851	1078.110842519379	47.398726272828	316.432585526368	976.790626059557	1098.458217711460	128.607460267380	1141.520416508372	899.151759536634	154.247788009460	888.199502535523	1093.686254757170	712.669964606197	1063.821935377463	909.554022425291	689.059276311905	
